<svg xmlns="http://www.w3.org/2000/svg" width="140" height="140" viewBox="0 0 140 140">
  <g id="Ellipse_26" data-name="Ellipse 26" fill="#009bd8" stroke="#fff" stroke-width="15">
    <circle cx="70" cy="70" r="70" stroke="none"/>
    <circle cx="70" cy="70" r="62.5" fill="none"/>
  </g>
  <path id="Icon_awesome-book" data-name="Icon awesome-book" d="M42.2,33.911V2.261A2.255,2.255,0,0,0,39.939,0H9.043A9.045,9.045,0,0,0,0,9.043V39.186a9.045,9.045,0,0,0,9.043,9.043h30.9A2.255,2.255,0,0,0,42.2,45.968V44.461a2.278,2.278,0,0,0-.838-1.761,21.006,21.006,0,0,1,0-7.036A2.245,2.245,0,0,0,42.2,33.911ZM12.057,12.622a.567.567,0,0,1,.565-.565h19.97a.567.567,0,0,1,.565.565v1.884a.567.567,0,0,1-.565.565H12.622a.567.567,0,0,1-.565-.565Zm0,6.029a.567.567,0,0,1,.565-.565h19.97a.567.567,0,0,1,.565.565v1.884a.567.567,0,0,1-.565.565H12.622a.567.567,0,0,1-.565-.565ZM35.926,42.2H9.043a3.014,3.014,0,0,1,0-6.029H35.926A33.911,33.911,0,0,0,35.926,42.2Z" transform="translate(48.8 45.486)" fill="#fff"/>
</svg>
