<svg xmlns="http://www.w3.org/2000/svg" width="140" height="140" viewBox="0 0 140 140">
  <g id="Ellipse_27" data-name="Ellipse 27" fill="#009bd8" stroke="#fff" stroke-width="15">
    <circle cx="70" cy="70" r="70" stroke="none"/>
    <circle cx="70" cy="70" r="62.5" fill="none"/>
  </g>
  <path id="Icon_awesome-user-md" data-name="Icon awesome-user-md" d="M23.567,26.933A13.467,13.467,0,1,0,10.1,13.467,13.466,13.466,0,0,0,23.567,26.933ZM10.942,44.608a2.525,2.525,0,1,0,2.525-2.525A2.519,2.519,0,0,0,10.942,44.608ZM33.666,30.363v5.155A8.429,8.429,0,0,1,40.4,43.766v4.387a1.689,1.689,0,0,1-1.357,1.652l-3.388.673a.837.837,0,0,1-.989-.663l-.326-1.652A.832.832,0,0,1,35,47.175l2.031-.41v-3c0-6.607-10.1-6.849-10.1.2v2.809l2.031.41a.854.854,0,0,1,.663.989L29.3,49.826a.854.854,0,0,1-.989.663l-3.282-.442a1.681,1.681,0,0,1-1.452-1.673V43.766a8.438,8.438,0,0,1,6.733-8.248V30.763c-.231.074-.463.116-.694.2a18.2,18.2,0,0,1-12.078,0,11.628,11.628,0,0,0-2.378-.547V39a5.892,5.892,0,1,1-3.367,0V30.542A14.1,14.1,0,0,0,0,44.44v4.713a4.719,4.719,0,0,0,4.713,4.713H42.42a4.719,4.719,0,0,0,4.713-4.713V44.44A14.119,14.119,0,0,0,33.666,30.363Z" transform="translate(46.333 42.667)" fill="#fff"/>
</svg>
