<svg width="20" height="15" viewBox="0 0 20 15" fill="none" xmlns="http://www.w3.org/2000/svg">
<path d="M5.575 13.7219L1.46 9.6009C1.12657 9.27787 0.934884 8.83576 0.92701 8.37158C0.919136 7.9074 1.09571 7.45905 1.418 7.1249C1.5831 6.96501 1.7781 6.83926 1.99186 6.75482C2.20561 6.67039 2.43392 6.62894 2.66371 6.63284C2.8935 6.63674 3.12027 6.68592 3.33104 6.77756C3.5418 6.8692 3.73243 7.0015 3.892 7.1669L6.921 10.1989L16.521 0.588898C16.8488 0.261355 17.2933 0.0774493 17.7567 0.0776369C18.2201 0.0778244 18.6645 0.26209 18.992 0.589898C19.3195 0.917705 19.5034 1.3622 19.5033 1.8256C19.5031 2.28901 19.3188 2.73336 18.991 3.0609L8.437 13.6239C8.20106 13.8609 7.90176 14.0248 7.575 14.0959C7.3482 14.2012 7.10106 14.2555 6.851 14.2549C6.61368 14.2546 6.37876 14.2073 6.15977 14.1158C5.94079 14.0243 5.74205 13.8905 5.575 13.7219Z" fill="#004598"/>
</svg>
