<svg width="20" height="15" viewBox="0 0 20 15" fill="none" xmlns="http://www.w3.org/2000/svg">
<path d="M5.575 14.3889L1.46 10.2679C1.12657 9.94486 0.934884 9.50276 0.92701 9.03857C0.919136 8.57439 1.09571 8.12604 1.418 7.79189C1.5831 7.63201 1.7781 7.50625 1.99186 7.42181C2.20561 7.33738 2.43392 7.29593 2.66371 7.29983C2.8935 7.30373 3.12027 7.35291 3.33104 7.44455C3.5418 7.53619 3.73243 7.66849 3.892 7.83389L6.921 10.8659L16.521 1.25589C16.8488 0.928348 17.2933 0.744442 17.7567 0.744629C18.2201 0.744817 18.6645 0.929082 18.992 1.25689C19.3195 1.5847 19.5034 2.02919 19.5033 2.4926C19.5031 2.956 19.3188 3.40035 18.991 3.72789L8.437 14.2909C8.20106 14.5279 7.90176 14.6918 7.575 14.7629C7.3482 14.8682 7.10106 14.9225 6.851 14.9219C6.61368 14.9216 6.37876 14.8743 6.15977 14.7828C5.94079 14.6913 5.74205 14.5575 5.575 14.3889Z" fill="#009BD8"/>
</svg>
