<svg xmlns="http://www.w3.org/2000/svg" width="370" height="158.242" viewBox="0 0 370 158.242">
  <g id="Group_359" data-name="Group 359" transform="translate(-276.034 -711.218)">
    <path id="Path_98" data-name="Path 98" d="M784.48,859.853l-6.085,12.625c-6.721-3.906-15.168-6.63-20.345-6.63-4.178,0-6.994,1.544-6.994,4.632,0,10.99,33.606,4.723,33.606,27.7,0,12.716-11.263,19.437-25.432,19.437a47.408,47.408,0,0,1-29.065-10.173L736.432,895c6.54,5.722,16.349,9.537,22.98,9.537,5.086,0,8.265-1.907,8.265-5.54,0-11.263-33.606-4.541-33.606-27.067,0-11.717,10.082-19.165,25.341-19.165A47.72,47.72,0,0,1,784.48,859.853Z" transform="translate(-333.998 -104.105)" fill="#004598"/>
    <path id="Path_99" data-name="Path 99" d="M1025.069,918.843l-.091-41.327-15.259,34.969H999.183l-15.259-34.969v41.327H969.482V855.172h17.712l17.257,37.875,17.257-37.875h17.621v63.671Z" transform="translate(-510.008 -105.873)" fill="#009bd8"/>
    <path id="Path_100" data-name="Path 100" d="M1316.366,937.982h-34.424c1.544,5.813,5.722,9.083,11.535,9.083a16.536,16.536,0,0,0,11.717-5l8.266,8.084c-5,5.449-12.353,8.629-21.344,8.629-15.986,0-25.977-9.991-25.977-24.887,0-15.168,10.354-25.159,25.523-25.159C1308.918,908.735,1317.456,920.088,1316.366,937.982Zm-15.078-8.447c0-5.995-3.815-9.9-9.447-9.9-5.449,0-9.173,4-10.172,9.9Z" transform="translate(-728.189 -145.267)" fill="#009bd8"/>
    <path id="Path_101" data-name="Path 101" d="M1526.494,908.489h-15.713V902.04a17.718,17.718,0,0,1-14.714,7.084c-13.806,0-22.889-10.173-22.889-25.341,0-14.987,8.992-24.887,22.526-24.887,6.449,0,11.626,2.543,15.078,7.085V841.094h15.713Zm-15.713-24.342c0-7.539-4.36-12.716-10.9-12.716s-10.9,5.177-10.99,12.716c.091,7.539,4.451,12.807,10.99,12.807S1510.781,891.685,1510.781,884.147Z" transform="translate(-880.46 -95.52)" fill="#009bd8"/>
    <path id="Path_102" data-name="Path 102" d="M339.016,755.378a9.251,9.251,0,1,0,9.254,9.251A9.252,9.252,0,0,0,339.016,755.378Z" transform="translate(-39.517 -32.478)" fill="#009bd8"/>
    <g id="Group_21" data-name="Group 21" transform="translate(276.034 747.475)">
      <path id="Path_103" data-name="Path 103" d="M438.9,902.352a3.429,3.429,0,0,1,.224.841,6.43,6.43,0,0,1-.992-.713l-.234-.186a.661.661,0,0,1-.3-.524,1.61,1.61,0,0,1,.56-.982A8.76,8.76,0,0,1,438.9,902.352Z" transform="translate(-394.86 -886.898)" fill="#009bd8"/>
      <g id="Group_20" data-name="Group 20">
        <path id="Path_104" data-name="Path 104" d="M295.057,877.721q-.074-4.207-.129-8.38c-.39-.074-.776-.145-1.163-.222-7.343-1.581-10.2-7.806-4.587-10.317,6.92-3.079,15.694-3.557,20.649-.334s2.416,5.538,7.313,8.055c6.586,3.385,9.495,2.037,5.366-6.115-7.085-13.98-32.258-16.581-44.19-4.088C273.777,861.3,274.446,870.372,295.057,877.721Zm22.786-17.937a.251.251,0,0,1,.353.012,12.19,12.19,0,0,1,2.345,3.772c.306.864.33,1.271.065,1.453a.368.368,0,0,1-.229.074c-.328,0-.78-.358-1.39-.85l-.229-.184a1.147,1.147,0,0,1-.483-.908,2.183,2.183,0,0,1,.788-1.412,12.484,12.484,0,0,0-1.231-1.6A.257.257,0,0,1,317.843,859.785Zm-39.668.575s2.827-7.332,14.258-9.79a29.292,29.292,0,0,1,19.657,2.376C289.107,846.1,278.175,860.359,278.175,860.359Z" transform="translate(-276.034 -848.28)" fill="#009bd8"/>
        <path id="Path_105" data-name="Path 105" d="M324.574,1124.592c-1.176,5.965,4.032,10.548,8.46,13.436.146.1.3.189.443.282-.044-.8-.086-1.635-.138-2.505a16.654,16.654,0,0,1-4.452-5.307c-1.032-2.211-1.472-4.843.358-6.747,1.853-1.93,4.592-2.979,7-4.031a58.9,58.9,0,0,0,7.114-3.443c4.3-2.613,8.1-7.086,6.944-12.454-1.126-5.258-7.115-7.986-11.679-9.956q-.142,4.169-.3,8.317c.768.317,1.531.652,2.277,1.019,1.02.5,2.48,1.2,3.026,2.275.017.037.026.077.047.117h0a7.114,7.114,0,0,1,.842,4.155,3.16,3.16,0,0,0-1.038-2.092c-.023.06-.053.125-.08.187-1.152,2.53-3.891,4.177-6.181,5.545C332.705,1116.085,325.716,1118.78,324.574,1124.592Zm18.348-27.17a11.287,11.287,0,0,1,5.131,5.157c1.475,3.471.217,5.343.217,5.343A12.687,12.687,0,0,0,342.922,1097.422Zm-11.794,20.884c7.5-4.114,9.8-5.712,9.8-5.712s-1.478,1.873-9.431,6.512c-6.791,3.956-5.592,9.031-5.592,9.031S323.633,1122.424,331.128,1118.306Z" transform="translate(-311.61 -1028.901)" fill="#009bd8"/>
        <path id="Path_106" data-name="Path 106" d="M291.278,961.688a9.661,9.661,0,0,0-2.466,8.063c.54,4.714,5.09,8.032,8.984,9.933a60.937,60.937,0,0,0,7.712,2.962c-.114-3.016-.211-6.037-.311-9.066-.675-.312-1.337-.632-1.994-.969A18.54,18.54,0,0,1,299.4,970.3c-2.044.245-1.062,2.464-1.062,2.464a3.516,3.516,0,0,1-.12-4.429h0c.513-.858,3.853-2.063,4.2-2.2,2.807-1.08,5.715-1.886,8.6-2.728,5.794-1.693,12.128-3.337,16.936-7.151,3.748-2.971,6.077-8.143,3.66-12.67-2.339-4.39-7.635-6.253-12.1-7.548-2.018-.583-4.058-1.072-6.111-1.513q-.07,4.649-.159,9.335a.145.145,0,0,0,.021.006,29.517,29.517,0,0,1,8.262,3.408,4.229,4.229,0,0,1,.383.235c3.211,2.058,2.976,4.134,2.976,4.134s-1.771-3.015-6.338-1.7a70.218,70.218,0,0,1-7.741,2.831c-5.349,1.714-11.2,3.122-16,6.144A16.791,16.791,0,0,0,291.278,961.688Zm29.736-23.608s6.144,1.6,8.234,5.162,1.291,5.1,1.291,5.1S330.047,942.564,321.014,938.08ZM290.086,968.5c-.006-1.07.451-6.211,9.342-9.914a139.818,139.818,0,0,1,18.045-6.252c-25.669,9.181-27.329,15.021-27.388,16.166,0,.13.005.21.005.21A1.181,1.181,0,0,1,290.086,968.5Z" transform="translate(-285.369 -911.708)" fill="#009bd8"/>
        <path id="Path_107" data-name="Path 107" d="M370.464,1263.051a14.971,14.971,0,0,1,2.911,3.314,8.535,8.535,0,0,1,.8,6.761,8.234,8.234,0,0,0-1.322-5.931,11.611,11.611,0,0,0-2.484-2.411C370.4,1264.221,370.428,1263.655,370.464,1263.051Z" transform="translate(-345.415 -1153.331)" fill="#009bd8"/>
      </g>
    </g>
    <g id="Group_22" data-name="Group 22" transform="translate(295.582 742.336)">
      <path id="Path_108" data-name="Path 108" d="M364.986,881.776c-.083,10.709-.246,21.014-.463,30.751-.572.188-1.155.375-1.7.553-.914.294-1.85.576-2.791.864-.1-10.013-.176-20.815-.212-32.151a26.389,26.389,0,0,1,2.745-.149A22.149,22.149,0,0,1,364.986,881.776Z" transform="translate(-357.2 -867.679)" fill="#009bd8"/>
      <path id="Path_109" data-name="Path 109" d="M351.857,915.147c-.4.123-.8.244-1.2.369-.234-10.229-.416-21.115-.5-32.452.427-.085.856-.162,1.284-.228C351.505,894.233,351.658,905.094,351.857,915.147Z" transform="translate(-350.092 -868.556)" fill="#009bd8"/>
      <path id="Path_110" data-name="Path 110" d="M361.135,1047.2c.765-.228,1.528-.455,2.279-.671l1.771-.514c-.323,11.558-.707,22.093-1.092,31.279-.1.061-.2.123-.3.179-.671.4-1.41.807-2.173,1.222C361.467,1070.206,361.291,1059.5,361.135,1047.2Z" transform="translate(-358.17 -988.568)" fill="#009bd8"/>
      <path id="Path_111" data-name="Path 111" d="M353.253,1051.922c.388-.124.774-.246,1.161-.364.3,12.3.651,22.99.971,31.458-.331.181-.666.364-1,.549C353.986,1074.349,353.593,1063.686,353.253,1051.922Z" transform="translate(-352.374 -992.645)" fill="#009bd8"/>
      <path id="Path_112" data-name="Path 112" d="M353.3,833.149c-.256,0-.513.01-.771.016v-2.08a6.624,6.624,0,0,1-1.3-.3c0,.813,0,1.62,0,2.428-.436.026-.871.056-1.3.1,0-1.482-.007-2.966-.007-4.462a10.624,10.624,0,0,0,7.841,0q0,2.31-.011,4.6A34.812,34.812,0,0,0,353.3,833.149Z" transform="translate(-349.928 -828.852)" fill="#009bd8"/>
      <path id="Path_113" data-name="Path 113" d="M359.714,1195.266c.363,8.718.621,13.685.621,13.685s-.132-5.021-.316-13.821c.352-.155.7-.306,1.049-.458l.921-.4c-.862,18.991-1.654,30.457-1.654,30.457s-.744-10.884-1.583-29.015C359.063,1195.561,359.391,1195.415,359.714,1195.266Z" transform="translate(-356.418 -1097.608)" fill="#009bd8"/>
    </g>
    <path id="Path_114" data-name="Path 114" d="M308.317,711.218l-20.3,7.917,4.141,1.615h0v4.009a.882.882,0,0,0,0,1.666v.054a.593.593,0,0,0-.592.592v6.389a.593.593,0,0,0,.592.591h.592a.593.593,0,0,0,.591-.591v-6.389a.593.593,0,0,0-.591-.592v-.054a.882.882,0,0,0,0-1.666v-3.777h0l6.727,2.625-.047,5.719c6.388-2.676,11.328-2.676,17.718,0V723.6l11.459-4.47Zm-8.834,12.313a27.281,27.281,0,0,1,17.671-.683v.683A27.209,27.209,0,0,0,299.482,723.531Z" transform="translate(-8.816)" fill="#004598" fill-rule="evenodd"/>
    <text id="Interview" transform="translate(334.839 848.581)" fill="#fff" font-size="38" font-family="SegoeUI, Segoe UI" letter-spacing="0.421em"><tspan x="0" y="0">Interview</tspan></text>
    <g id="Group_23" data-name="Group 23" transform="translate(330.622 749.728)">
      <path id="Path_115" data-name="Path 115" d="M541.057,893.895c0,16.906-11.24,27.6-29.15,27.6-18,0-29.516-10.692-29.516-27.6v-37.1h16.266v37.1c0,8.681,5.574,13.981,13.342,13.981,7.676,0,12.885-5.3,12.885-13.981v-37.1h16.175Z" transform="translate(-482.39 -856.794)" fill="#004598"/>
    </g>
  </g>
</svg>
