<svg xmlns="http://www.w3.org/2000/svg" width="45.96" height="47" viewBox="0 0 45.96 47">
  <g id="facebook" transform="translate(-994 -3803)">
    <ellipse id="Ellipse_1" data-name="Ellipse 1" cx="22.98" cy="23.5" rx="22.98" ry="23.5" transform="translate(994 3803)" fill="#009bd8"/>
    <path id="Icon_simple-tiktok" data-name="Icon simple-tiktok" d="M11.581.017C12.683,0,13.776.008,14.87,0a5.24,5.24,0,0,0,1.472,3.508,5.932,5.932,0,0,0,3.567,1.506V8.4a9,9,0,0,1-3.533-.816,10.393,10.393,0,0,1-1.363-.782C15,9.262,15.021,11.718,15,14.166A6.425,6.425,0,0,1,13.86,17.48a6.267,6.267,0,0,1-4.972,2.7,6.134,6.134,0,0,1-3.432-.866,6.344,6.344,0,0,1-3.07-4.8c-.017-.421-.025-.841-.008-1.253A6.333,6.333,0,0,1,9.722,7.638c.017,1.245-.034,2.49-.034,3.735A2.886,2.886,0,0,0,6,13.157a3.337,3.337,0,0,0-.118,1.354A2.863,2.863,0,0,0,8.83,16.925a2.826,2.826,0,0,0,2.33-1.354,1.941,1.941,0,0,0,.345-.892c.084-1.506.05-3,.059-4.509.008-3.39-.008-6.772.017-10.153Z" transform="translate(1005.841 3816.405)" fill="#fff"/>
  </g>
</svg>
